<svg id="Layer_1" data-name="Layer 1" xmlns="http://www.w3.org/2000/svg" viewBox="0 0 205.05 145.03"><defs><style>.cls-1{fill:#29265b;}</style></defs><path class="cls-1" d="M86.83,43.48H49.23a2.7,2.7,0,1,0,0,5.39h37.6a2.7,2.7,0,0,0,0-5.39Z"/><path class="cls-1" d="M86.83,63.7H49.23a2.7,2.7,0,0,0,0,5.4h37.6a2.7,2.7,0,0,0,0-5.4Z"/><path class="cls-1" d="M86.83,83.93H49.23a2.7,2.7,0,1,0,0,5.39h37.6a2.7,2.7,0,0,0,0-5.39Z"/><path class="cls-1" d="M109.9,46.18a2.69,2.69,0,0,0,2.7,2.69h37.59a2.7,2.7,0,1,0,0-5.39H112.6A2.7,2.7,0,0,0,109.9,46.18Z"/><path class="cls-1" d="M150.19,63.7H112.6a2.7,2.7,0,0,0,0,5.4h37.59a2.7,2.7,0,0,0,0-5.4Z"/><path class="cls-1" d="M150.19,83.93H112.6a2.7,2.7,0,1,0,0,5.39h37.59a2.7,2.7,0,1,0,0-5.39Z"/><path class="cls-1" d="M163.08,23.26H111.2a14.19,14.19,0,0,0-11.49,5.87,14.17,14.17,0,0,0-11.48-5.87H36.35A2.69,2.69,0,0,0,33.65,26v80.89a2.7,2.7,0,0,0,2.7,2.7h19.9l9.44,16.36a2.7,2.7,0,0,0,4.68,0l9.44-16.36h8.42a14.16,14.16,0,0,0,11.48-5.88,14.17,14.17,0,0,0,11.49,5.88h8.41l9.45,16.36a2.69,2.69,0,0,0,4.67,0l9.44-16.36h19.91a2.7,2.7,0,0,0,2.69-2.7V26A2.68,2.68,0,0,0,163.08,23.26ZM97,95.36a8.8,8.8,0,0,1-8.79,8.79h-10a2.68,2.68,0,0,0-2.33,1.35L68,119.16,60.14,105.5a2.68,2.68,0,0,0-2.33-1.35H39V28.65H88.23A8.8,8.8,0,0,1,97,37.44Zm63.36,8.79H141.62a2.68,2.68,0,0,0-2.34,1.35l-7.89,13.66-7.88-13.66a2.7,2.7,0,0,0-2.34-1.35h-10a8.8,8.8,0,0,1-8.79-8.79V37.44a8.8,8.8,0,0,1,8.79-8.79h49.18Z"/></svg>