<svg id="Layer_1" data-name="Layer 1" xmlns="http://www.w3.org/2000/svg" viewBox="0 0 644.26 644.26"><defs><style>.cls-1{fill:#29265b;}.cls-2{fill:#fff;}</style></defs><rect class="cls-1" width="644.26" height="644.26" rx="150"/><path class="cls-2" d="M276.71,228H144.16a9.51,9.51,0,1,0,0,19H276.71a9.51,9.51,0,1,0,0-19Z"/><path class="cls-2" d="M276.71,299.24H144.16a9.51,9.51,0,1,0,0,19H276.71a9.51,9.51,0,1,0,0-19Z"/><path class="cls-2" d="M276.71,370.54H144.16a9.51,9.51,0,1,0,0,19H276.71a9.51,9.51,0,1,0,0-19Z"/><path class="cls-2" d="M358,237.45a9.51,9.51,0,0,0,9.51,9.51H500.1a9.51,9.51,0,1,0,0-19H367.55A9.5,9.5,0,0,0,358,237.45Z"/><path class="cls-2" d="M500.1,299.24H367.55a9.51,9.51,0,1,0,0,19H500.1a9.51,9.51,0,0,0,0-19Z"/><path class="cls-2" d="M500.1,370.54H367.55a9.51,9.51,0,1,0,0,19H500.1a9.51,9.51,0,1,0,0-19Z"/><path class="cls-2" d="M545.52,156.65H362.62a50,50,0,0,0-40.49,20.72,50,50,0,0,0-40.49-20.72H98.73a9.5,9.5,0,0,0-9.5,9.51V451.34a9.51,9.51,0,0,0,9.51,9.51H168.9l33.3,57.68a9.51,9.51,0,0,0,16.47,0L252,460.85h29.68a50,50,0,0,0,40.49-20.72,50,50,0,0,0,40.49,20.72H392.3l33.29,57.67a9.51,9.51,0,0,0,16.47,0l33.29-57.68h70.17a9.51,9.51,0,0,0,9.51-9.51V166.16A9.51,9.51,0,0,0,545.52,156.65Zm-232.9,254.2a31,31,0,0,1-31,31H246.47a9.51,9.51,0,0,0-8.23,4.75l-27.81,48.16-27.81-48.17a9.49,9.49,0,0,0-8.23-4.75H108.24V175.66h173.4a31,31,0,0,1,31,31Zm223.4,31H469.87a9.52,9.52,0,0,0-8.24,4.75l-27.8,48.17L406,446.59a9.52,9.52,0,0,0-8.24-4.75H362.62a31,31,0,0,1-31-31V206.65a31,31,0,0,1,31-31H536Z"/><text/></svg>