<svg id="Layer_1" data-name="Layer 1" xmlns="http://www.w3.org/2000/svg" viewBox="0 0 406.13 154"><defs><style>.cls-1{fill:#29265b;}.cls-2{font-size:99px;font-family:UnivaNova-Medium, Univa Nova;font-weight:500;letter-spacing:-0.04em;}.cls-2,.cls-4{fill:#fff;}.cls-3{letter-spacing:-0.24em;}</style></defs><rect class="cls-1" x="17.98" y="11.79" width="370.64" height="129.3" rx="10"/><text class="cls-2" transform="translate(168.79 113.52)">E<tspan class="cls-3" x="56.37" y="0">V</tspan><tspan x="111.05" y="0">A</tspan></text><path class="cls-4" d="M95.32,57.65H66.07a2.1,2.1,0,0,0,0,4.2H95.32a2.1,2.1,0,1,0,0-4.2Z"/><path class="cls-4" d="M95.32,73.38H66.07a2.1,2.1,0,0,0,0,4.2H95.32a2.1,2.1,0,0,0,0-4.2Z"/><path class="cls-4" d="M95.32,89.11H66.07a2.1,2.1,0,0,0,0,4.2H95.32a2.1,2.1,0,1,0,0-4.2Z"/><path class="cls-4" d="M113.26,59.75a2.1,2.1,0,0,0,2.1,2.1h29.25a2.1,2.1,0,0,0,0-4.2H115.36A2.1,2.1,0,0,0,113.26,59.75Z"/><path class="cls-4" d="M144.61,73.38H115.36a2.1,2.1,0,0,0,0,4.2h29.25a2.1,2.1,0,0,0,0-4.2Z"/><path class="cls-4" d="M144.61,89.11H115.36a2.1,2.1,0,1,0,0,4.2h29.25a2.1,2.1,0,1,0,0-4.2Z"/><path class="cls-4" d="M154.63,41.92H114.27a11,11,0,0,0-8.93,4.57,11,11,0,0,0-8.93-4.57H56.05A2.1,2.1,0,0,0,54,44v62.92a2.1,2.1,0,0,0,2.1,2.1H71.53l7.35,12.72a2.09,2.09,0,0,0,3.63,0L89.86,109h6.55a11,11,0,0,0,8.93-4.57,11,11,0,0,0,8.93,4.57h6.55l7.35,12.72a2.09,2.09,0,0,0,3.63,0L139.15,109h15.48a2.1,2.1,0,0,0,2.1-2.1V44A2.1,2.1,0,0,0,154.63,41.92ZM103.24,98a6.84,6.84,0,0,1-6.83,6.84H88.65a2.1,2.1,0,0,0-1.82,1L80.7,116.52l-6.14-10.63a2.1,2.1,0,0,0-1.82-1H58.15V46.12H96.41A6.83,6.83,0,0,1,103.24,53Zm49.29,6.83H137.94a2.11,2.11,0,0,0-1.82,1L130,116.52l-6.14-10.63a2.09,2.09,0,0,0-1.82-1h-7.76A6.84,6.84,0,0,1,107.44,98V53a6.83,6.83,0,0,1,6.83-6.83h38.26Z"/></svg>