<svg id="Layer_1" data-name="Layer 1" xmlns="http://www.w3.org/2000/svg" viewBox="0 0 644.26 644.26"><defs><style>.cls-1{fill:#29265b;}.cls-2{font-size:142.35px;font-family:UnivaNova-Medium, Univa Nova;font-weight:500;}.cls-2,.cls-4{fill:#fff;}.cls-3{letter-spacing:-0.21em;}</style></defs><rect class="cls-1" width="644.26" height="644.26" rx="150"/><text class="cls-2" transform="translate(187.44 538.86)">E<tspan class="cls-3" x="86.6" y="0">V</tspan><tspan x="170.77" y="0">A</tspan></text><path class="cls-4" d="M286.63,181.12H183A7.43,7.43,0,0,0,183,196h103.6a7.43,7.43,0,1,0,0-14.86Z"/><path class="cls-4" d="M286.63,236.84H183a7.43,7.43,0,0,0,0,14.86h103.6a7.43,7.43,0,0,0,0-14.86Z"/><path class="cls-4" d="M286.63,292.56H183a7.43,7.43,0,0,0,0,14.86h103.6a7.43,7.43,0,0,0,0-14.86Z"/><path class="cls-4" d="M350.2,188.55a7.43,7.43,0,0,0,7.43,7.43H461.22a7.43,7.43,0,0,0,0-14.86H357.63A7.43,7.43,0,0,0,350.2,188.55Z"/><path class="cls-4" d="M461.22,236.84H357.63a7.43,7.43,0,0,0,0,14.86H461.22a7.43,7.43,0,0,0,0-14.86Z"/><path class="cls-4" d="M461.22,292.56H357.63a7.43,7.43,0,0,0,0,14.86H461.22a7.43,7.43,0,0,0,0-14.86Z"/><path class="cls-4" d="M496.72,125.4h-143a39,39,0,0,0-31.64,16.19,39,39,0,0,0-31.65-16.19H147.54a7.42,7.42,0,0,0-7.43,7.43V355.71a7.41,7.41,0,0,0,7.43,7.43h54.84l26,45.08a7.44,7.44,0,0,0,12.87,0l26-45.08h23.19A39,39,0,0,0,322.13,347a39,39,0,0,0,31.64,16.19H377l26,45.08a7.44,7.44,0,0,0,12.87,0l26-45.08h54.84a7.41,7.41,0,0,0,7.43-7.43V132.83A7.42,7.42,0,0,0,496.72,125.4Zm-182,198.67a24.24,24.24,0,0,1-24.22,24.21H263a7.42,7.42,0,0,0-6.43,3.72l-21.74,37.64L213.1,352a7.44,7.44,0,0,0-6.44-3.72H155v-208H290.48a24.24,24.24,0,0,1,24.22,24.21Zm174.59,24.21h-51.7a7.43,7.43,0,0,0-6.43,3.72l-21.74,37.64L387.69,352a7.42,7.42,0,0,0-6.43-3.72H353.77a24.24,24.24,0,0,1-24.21-24.21V164.47a24.24,24.24,0,0,1,24.21-24.21H489.29Z"/><text/></svg>